<svg xmlns="http://www.w3.org/2000/svg" width="280" height="280" viewBox="0 0 280 280">
  <defs>
    <filter id="soft" x="-20%" y="-20%" width="140%" height="140%">
      <feGaussianBlur stdDeviation="0.3" />
    </filter>
    
  </defs>
  <rect width="280" height="280" fill="none"/>
  <polygon points="60,88 84,88 72,60" fill="#FDE047" />
<circle cx="72" cy="58" r="4" fill="#FDE047"/>
<path d="M 65 78 h14 M 66 82 h12" stroke="white" stroke-width="2" opacity=".7"/>
<polygon points="210,98 234,98 222,70" fill="#34D399" />
<circle cx="222" cy="68" r="4" fill="#34D399"/>
<path d="M 215 88 h14 M 216 92 h12" stroke="white" stroke-width="2" opacity=".7"/>
<polygon points="100,218 124,218 112,190" fill="#A78BFA" />
<circle cx="112" cy="188" r="4" fill="#A78BFA"/>
<path d="M 105 208 h14 M 106 212 h12" stroke="white" stroke-width="2" opacity=".7"/>
<polygon points="210,228 234,228 222,200" fill="#FB7185" />
<circle cx="222" cy="198" r="4" fill="#FB7185"/>
<path d="M 215 218 h14 M 216 222 h12" stroke="white" stroke-width="2" opacity=".7"/>
</svg>