<svg xmlns="http://www.w3.org/2000/svg" width="280" height="280" viewBox="0 0 280 280">
  <defs>
    <filter id="soft" x="-20%" y="-20%" width="140%" height="140%">
      <feGaussianBlur stdDeviation="0.3" />
    </filter>
    
  </defs>
  <rect width="280" height="280" fill="none"/>
  <circle cx="34" cy="38" r="4" fill="#FDE047" opacity="0.95"/><circle cx="210" cy="70" r="3" fill="#FDE047" opacity="0.95"/><circle cx="150" cy="200" r="3.5" fill="#34D399" opacity="0.95"/><circle cx="90" cy="120" r="2.8" fill="#FB7185" opacity="0.95"/><circle cx="240" cy="180" r="3.3" fill="#F472B6" opacity="0.95"/>
<rect x="82" y="24" width="10" height="10" rx="3.3333333333333335" fill="#60A5FA" opacity="0.95" transform="rotate(15 87.0 29.0)"/><rect x="248" y="96" width="12" height="12" rx="4.0" fill="#F59E0B" opacity="0.95" transform="rotate(-12 254.0 102.0)"/><rect x="120" y="150" width="10" height="10" rx="3.3333333333333335" fill="#FB7185" opacity="0.95" transform="rotate(30 125.0 155.0)"/><rect x="38" y="200" width="12" height="12" rx="4.0" fill="#F472B6" opacity="0.95" transform="rotate(-18 44.0 206.0)"/>
<rect x="180" y="28" width="7" height="7" fill="#60A5FA" opacity="0.9" transform="rotate(45 183.5 31.5)"/><rect x="210" y="210" width="8" height="8" fill="#A78BFA" opacity="0.9" transform="rotate(45 214.0 214.0)"/><rect x="60" y="150" width="7" height="7" fill="#60A5FA" opacity="0.9" transform="rotate(45 63.5 153.5)"/>
</svg>