<svg xmlns="http://www.w3.org/2000/svg" width="280" height="280" viewBox="0 0 280 280">
  <defs>
    <filter id="soft" x="-20%" y="-20%" width="140%" height="140%">
      <feGaussianBlur stdDeviation="0.3" />
    </filter>
    
  </defs>
  <rect width="280" height="280" fill="none"/>
  <rect x="30" y="40" width="18" height="6" rx="3" fill="#ffd166" transform="rotate(25 39.0 43.0)"/>
<rect x="90" y="20" width="20" height="6" rx="3" fill="#ffb3ba" transform="rotate(-15 100.0 23.0)"/>
<rect x="220" y="30" width="18" height="6" rx="3" fill="#6ee7ff" transform="rotate(12 229.0 33.0)"/>
<rect x="70" y="110" width="22" height="6" rx="3" fill="#ffb3ba" transform="rotate(-8 81.0 113.0)"/>
<rect x="140" y="160" width="18" height="6" rx="3" fill="#ff7ab6" transform="rotate(18 149.0 163.0)"/>
<rect x="200" y="140" width="22" height="6" rx="3" fill="#6ee7ff" transform="rotate(-22 211.0 143.0)"/>
<rect x="250" y="220" width="20" height="6" rx="3" fill="#6ee7ff" transform="rotate(10 260.0 223.0)"/>
<rect x="40" y="200" width="18" height="6" rx="3" fill="#ff7ab6" transform="rotate(-15 49.0 203.0)"/>
<rect x="130" y="80" width="20" height="6" rx="3" fill="#6ee7ff" transform="rotate(30 140.0 83.0)"/>
</svg>