<svg xmlns="http://www.w3.org/2000/svg" width="280" height="280" viewBox="0 0 280 280">
  <defs>
    <filter id="soft" x="-20%" y="-20%" width="140%" height="140%">
      <feGaussianBlur stdDeviation="0.3" />
    </filter>
    
  </defs>
  <rect width="280" height="280" fill="none"/>
  <circle cx="60" cy="60" r="12" fill="#60A5FA" />
<path d="M 60 72 q 0 8 -10 14 q 8 6 4 16" fill="none" stroke="#60A5FA" stroke-width="2" stroke-linecap="round" />
<circle cx="220" cy="80" r="11" fill="#F472B6" />
<path d="M 220 91 q 0 8 -10 14 q 8 6 4 16" fill="none" stroke="#F472B6" stroke-width="2" stroke-linecap="round" />
<circle cx="110" cy="200" r="13" fill="#34D399" />
<path d="M 110 213 q 0 8 -10 14 q 8 6 4 16" fill="none" stroke="#34D399" stroke-width="2" stroke-linecap="round" />
<circle cx="200" cy="200" r="12" fill="#F59E0B" />
<path d="M 200 212 q 0 8 -10 14 q 8 6 4 16" fill="none" stroke="#F59E0B" stroke-width="2" stroke-linecap="round" />
</svg>