<svg xmlns="http://www.w3.org/2000/svg" width="280" height="280" viewBox="0 0 280 280">
  <defs>
    <filter id="soft" x="-20%" y="-20%" width="140%" height="140%">
      <feGaussianBlur stdDeviation="0.3" />
    </filter>
    
  </defs>
  <rect width="280" height="280" fill="none"/>
  
  <g fill="none" stroke="#A78BFA" stroke-width="6" stroke-linecap="round" opacity=".9" filter="url(#soft)">
    <path d="M30 120 q20 -18 38 0 q20 18 38 0" />
    <path d="M220 190 q-12 10 -22 0 q-12 -10 -22 0" />
    <path d="M110 60 q15 -12 28 0 q15 12 28 0" />
  </g>

<polygon points="56.00,30.00 58.65,36.36 65.51,36.91 60.28,41.39 61.88,48.09 56.00,44.50 50.12,48.09 51.72,41.39 46.49,36.91 53.35,36.36" fill="#FFD166" opacity=".95"/>
<polygon points="250.00,52.00 252.12,57.09 257.61,57.53 253.42,61.11 254.70,66.47 250.00,63.60 245.30,66.47 246.58,61.11 242.39,57.53 247.88,57.09" fill="#FB7185" opacity=".95"/>
<polygon points="160.00,201.00 162.38,206.72 168.56,207.22 163.85,211.25 165.29,217.28 160.00,214.05 154.71,217.28 156.15,211.25 151.44,207.22 157.62,206.72" fill="#22D3EE" opacity=".95"/>
</svg>