<svg xmlns="http://www.w3.org/2000/svg" width="280" height="280" viewBox="0 0 280 280">
  <defs>
    <filter id="soft" x="-20%" y="-20%" width="140%" height="140%">
      <feGaussianBlur stdDeviation="0.3" />
    </filter>
    
  </defs>
  <rect width="280" height="280" fill="none"/>
  
    <g fill="#F9A8D4" opacity=".95">
      <path d="M50 36 Q 54.2 45.8, 64 50 Q 54.2 54.2, 50 64 Q 45.8 54.2, 36 50 Q 45.8 45.8, 50 36 Z"/>
    </g>

    <g fill="#7DD3FC" opacity=".95">
      <path d="M240 48 Q 243.6 56.4, 252 60 Q 243.6 63.6, 240 72 Q 236.4 63.6, 228 60 Q 236.4 56.4, 240 48 Z"/>
    </g>

    <g fill="#C084FC" opacity=".95">
      <path d="M160 184 Q 164.8 195.2, 176 200 Q 164.8 204.8, 160 216 Q 155.2 204.8, 144 200 Q 155.2 195.2, 160 184 Z"/>
    </g>

    <g fill="#FDE047" opacity=".95">
      <path d="M90 140 Q 93.0 147.0, 100 150 Q 93.0 153.0, 90 160 Q 87.0 153.0, 80 150 Q 87.0 147.0, 90 140 Z"/>
    </g>
</svg>